<?xml version="1.0" standalone="no"?>
<!DOCTYPE svg PUBLIC "-//W3C//DTD SVG 20010904//EN"
 "http://www.w3.org/TR/2001/REC-SVG-20010904/DTD/svg10.dtd">
<svg version="1.0" xmlns="http://www.w3.org/2000/svg"
 width="375.000000pt" height="375.000000pt" viewBox="0 0 375.000000 375.000000"
 preserveAspectRatio="xMidYMid meet">
<metadata>
Created by potrace 1.14, written by Peter Selinger 2001-2017
</metadata>
<g transform="translate(0.000000,375.000000) scale(0.100000,-0.100000)"
fill="#000000" stroke="none">
<path d="M1869 3296 c-2 -2 -42 -6 -89 -10 -106 -8 -139 -13 -215 -33 -33 -8
-67 -16 -75 -18 -106 -24 -308 -119 -426 -200 -90 -63 -134 -102 -101 -89 8 3
18 12 21 20 3 8 10 14 15 14 5 0 45 22 89 49 44 28 83 47 86 44 3 -4 6 -2 6 4
0 5 18 16 40 23 22 7 40 18 40 23 0 6 3 8 6 4 4 -3 24 3 45 14 22 11 39 17 39
14 0 -4 12 1 28 9 44 25 243 78 337 90 22 3 60 8 85 12 66 10 211 11 243 3 15
-4 27 -4 27 1 0 11 -34 16 -116 19 -37 1 -71 4 -75 6 -3 3 -8 3 -10 1z"/>
<path d="M2095 3270 c27 -12 43 -12 25 0 -8 5 -22 9 -30 9 -10 0 -8 -3 5 -9z"/>
<path d="M1987 3194 c-1 -1 -36 -5 -77 -9 -62 -5 -160 -23 -340 -61 -156 -33
-452 -164 -614 -271 -94 -62 -306 -257 -306 -282 0 -5 -6 -16 -13 -23 -28 -30
-127 -252 -127 -286 0 -3 19 31 43 76 68 131 187 259 350 376 127 91 446 249
550 271 9 2 21 6 25 9 27 17 288 79 380 91 15 1 52 6 82 10 30 4 113 8 183 9
250 4 461 -39 625 -128 l47 -26 -30 26 c-41 34 -133 97 -173 118 -82 42 -246
83 -364 91 -99 7 -238 12 -241 9z"/>
<path d="M899 2903 l-34 -38 38 34 c34 33 42 41 34 41 -2 0 -19 -17 -38 -37z"/>
<path d="M2050 2914 c-23 -3 -152 -23 -185 -29 -28 -4 -111 -20 -160 -31 -28
-5 -228 -68 -300 -94 -102 -36 -343 -158 -439 -222 -168 -113 -278 -213 -370
-338 -101 -137 -138 -246 -135 -393 3 -90 14 -175 19 -132 6 68 19 136 28 150
4 5 7 16 9 24 3 21 50 107 96 175 54 80 188 213 289 285 45 33 88 64 94 68 41
31 199 116 279 152 39 17 78 36 87 41 19 11 95 39 219 80 112 38 303 82 362
84 15 1 27 4 27 7 0 3 6 6 13 6 6 1 50 5 97 10 101 10 374 10 445 1 145 -19
214 -36 324 -79 145 -58 271 -154 320 -245 12 -21 19 -29 16 -18 -14 55 -114
221 -160 267 -39 39 -189 139 -214 143 -4 0 -15 4 -26 8 -87 33 -210 63 -310
75 -68 9 -378 12 -425 5z"/>
<path d="M2297 2494 c-1 -1 -40 -5 -87 -8 -234 -16 -542 -91 -747 -182 -29
-12 -53 -21 -53 -19 0 9 -229 -113 -291 -154 -34 -22 -63 -41 -66 -41 -2 0 -9
-5 -16 -10 -7 -6 -37 -29 -67 -53 -30 -23 -62 -49 -70 -58 -9 -8 -25 -22 -36
-30 -23 -17 -142 -152 -171 -194 -24 -35 -84 -142 -84 -150 0 -2 -2 -10 -4
-17 -29 -81 -36 -176 -19 -268 3 -19 5 -37 4 -39 -1 -2 2 -7 7 -10 4 -3 24
-37 43 -74 19 -37 42 -75 52 -84 17 -15 17 -15 1 18 -22 43 -26 175 -8 245 41
152 151 307 319 448 248 208 665 394 1016 451 19 3 42 8 50 10 14 4 51 9 165
20 53 6 325 7 350 2 11 -3 47 -8 80 -13 33 -4 62 -8 65 -9 3 -1 23 -5 45 -10
49 -11 47 -10 65 -18 8 -3 41 -15 73 -26 142 -51 281 -158 323 -247 10 -21 22
-42 27 -45 5 -3 8 -9 8 -13 -4 -28 1 -47 11 -44 8 3 11 24 9 62 -2 54 -4 67
-16 126 -16 80 -112 205 -205 267 -93 62 -252 123 -363 139 -126 19 -193 25
-315 27 -52 1 -94 1 -95 1z"/>
<path d="M2257 1993 c-2 -1 -25 -5 -53 -8 -83 -11 -99 -13 -99 -15 0 -2 -13
-4 -84 -14 -24 -4 -52 -11 -62 -17 -11 -5 -23 -8 -27 -5 -5 3 -20 -1 -35 -9
-15 -8 -27 -12 -27 -10 0 5 -185 -58 -250 -86 -30 -12 -58 -28 -62 -33 -4 -6
-8 -8 -8 -3 0 7 -99 -40 -110 -52 -3 -4 -12 -7 -19 -9 -15 -3 -181 -109 -191
-121 -3 -3 -23 -20 -45 -36 -39 -29 -138 -126 -182 -179 -54 -65 -147 -246
-127 -246 4 0 2 -6 -4 -12 -12 -15 -9 -179 4 -199 5 -8 9 -16 10 -19 5 -26 55
-101 99 -146 19 -20 139 -104 148 -104 6 0 -2 12 -17 26 -14 15 -26 31 -26 35
0 5 -7 9 -16 9 -8 0 -12 5 -8 11 3 6 1 15 -6 19 -35 22 -64 215 -36 249 6 8
10 17 9 20 -6 13 10 71 18 71 5 0 8 4 6 8 -8 27 135 204 228 282 52 43 135
102 135 95 0 -3 7 0 15 7 30 27 44 38 51 38 3 0 20 10 37 22 18 13 32 21 32
19 0 -5 80 33 86 42 3 5 9 8 13 7 4 -1 29 7 56 19 28 12 51 21 52 20 2 0 26 8
53 19 28 11 55 21 60 22 6 1 21 7 34 12 14 5 30 7 37 4 7 -3 14 -1 16 4 2 5
17 11 33 14 17 2 37 6 45 9 19 7 74 18 120 22 19 2 35 4 35 5 0 2 16 3 35 4
19 1 40 4 45 8 13 8 304 3 373 -6 29 -4 64 -11 78 -16 13 -5 24 -7 24 -5 0 2
12 0 28 -6 15 -6 34 -12 43 -14 65 -13 202 -99 250 -158 72 -87 96 -180 76
-294 -3 -18 -2 -33 2 -33 5 0 26 42 36 73 1 4 4 9 5 12 1 3 4 10 5 15 1 6 4
13 5 18 1 4 2 10 1 15 0 4 3 7 7 7 9 0 10 10 16 104 9 170 -80 300 -266 390
-51 25 -102 47 -113 49 -11 2 -27 7 -35 10 -8 4 -26 9 -40 11 -14 3 -25 5 -25
6 0 1 -11 3 -25 5 -14 2 -43 7 -65 11 -38 6 -393 13 -398 7z"/>
<path d="M3285 1850 c3 -5 8 -10 11 -10 2 0 4 5 4 10 0 6 -5 10 -11 10 -5 0
-7 -4 -4 -10z"/>
<path d="M2307 1494 c-1 -1 -24 -5 -52 -8 -27 -3 -57 -8 -65 -9 -40 -9 -116
-21 -122 -19 -5 1 -8 -3 -8 -9 0 -5 -4 -8 -9 -5 -5 3 -35 -3 -67 -14 -33 -12
-61 -21 -64 -22 -3 0 -18 -6 -35 -12 -16 -5 -33 -9 -37 -8 -5 1 -8 -2 -8 -8 0
-6 -3 -9 -7 -8 -9 3 -185 -82 -193 -92 -3 -4 -16 -13 -29 -20 -14 -7 -30 -17
-35 -21 -6 -5 -25 -20 -42 -34 -18 -14 -35 -25 -38 -25 -11 0 -119 -115 -145
-155 -14 -22 -30 -43 -34 -46 -5 -3 -9 -10 -9 -15 0 -5 -5 -20 -10 -34 -16
-40 -20 -62 -23 -114 -2 -55 12 -126 26 -126 5 0 9 -7 9 -16 0 -25 94 -109
154 -137 81 -39 175 -63 280 -73 22 -2 46 -6 54 -9 8 -3 12 0 10 7 -2 6 -17
13 -34 15 -54 7 -82 15 -116 34 -10 5 -25 9 -33 9 -8 0 -15 5 -15 11 0 5 -4 8
-9 4 -5 -3 -34 19 -64 48 -69 67 -89 126 -73 212 8 41 50 125 70 137 6 4 7 8
1 8 -5 0 26 34 70 75 43 41 85 75 92 75 7 0 13 4 13 9 0 21 330 168 344 153 3
-3 6 0 6 6 0 7 3 11 8 10 4 -1 27 2 52 7 25 4 54 9 65 11 11 1 20 3 20 4 0 16
268 19 340 5 33 -7 63 -11 68 -8 4 2 7 -1 7 -6 0 -6 3 -10 8 -10 15 3 72 -14
72 -21 0 -4 8 -10 18 -14 46 -15 95 -64 122 -121 22 -46 32 -113 18 -121 -4
-3 -6 -10 -3 -15 4 -5 3 -15 -2 -21 -4 -7 -9 -22 -10 -33 -2 -10 -7 -22 -11
-25 -5 -3 -19 -23 -32 -45 -13 -22 -45 -62 -72 -88 -26 -26 -48 -50 -48 -52 0
-3 22 11 49 31 50 35 114 95 161 151 30 35 88 142 93 169 1 11 5 24 8 29 13
21 -1 124 -21 168 -37 78 -166 176 -255 193 -5 1 -13 3 -17 4 -5 1 -11 3 -15
4 -5 1 -18 5 -30 9 -12 5 -39 10 -60 13 -39 5 -281 12 -286 8z"/>
<path d="M3131 1234 c0 -11 3 -14 6 -6 3 7 2 16 -1 19 -3 4 -6 -2 -5 -13z"/>
<path d="M3106 1193 c-6 -14 -5 -15 5 -6 7 7 10 15 7 18 -3 3 -9 -2 -12 -12z"/>
<path d="M2248 1034 c-2 -1 -19 -5 -38 -8 -116 -19 -205 -54 -299 -119 -109
-75 -149 -143 -142 -245 1 -27 75 -102 100 -102 9 0 22 -5 27 -10 17 -17 203
-34 229 -21 5 3 27 7 48 9 20 1 55 9 76 17 22 7 42 11 45 8 3 -4 6 -1 6 5 0 6
7 9 15 6 8 -4 15 -1 15 5 0 6 7 11 15 11 32 0 122 57 181 115 64 62 92 116 89
170 -2 33 -24 85 -36 85 -5 0 -17 9 -28 21 -10 11 -25 21 -32 23 -8 1 -18 4
-24 7 -25 15 -76 23 -157 24 -48 1 -89 1 -90 -1z m76 -158 c39 15 119 -55 112
-98 -2 -20 -48 -88 -59 -88 -4 0 -17 -9 -29 -20 -12 -11 -28 -20 -35 -20 -7 0
-13 -4 -13 -8 0 -5 -6 -9 -12 -10 -7 0 -22 -3 -33 -6 -109 -30 -186 -29 -238
3 -62 38 -61 95 2 154 35 33 94 69 116 72 6 1 13 3 18 5 4 1 12 4 17 5 6 1 11
3 13 5 1 1 25 4 52 7 28 2 52 7 54 9 3 2 9 0 14 -5 5 -5 15 -7 21 -5z"/>
<path d="M2625 685 c-22 -13 -37 -25 -33 -25 9 0 78 41 78 46 0 6 -3 5 -45
-21z"/>
<path d="M2556 641 c-4 -5 3 -7 14 -4 23 6 26 13 6 13 -8 0 -17 -4 -20 -9z"/>
<path d="M1830 460 c8 -5 20 -10 25 -10 6 0 3 5 -5 10 -8 5 -19 10 -25 10 -5
0 -3 -5 5 -10z"/>
</g>
</svg>
